<svg xmlns="http://www.w3.org/2000/svg" xml:space="preserve" viewBox="0 0 128 128"><path fill="#543930" d="M83 80c-1-2 0-5 3-8 5-4 9-15 5-25l-1-2H8l-2 2c-5 10 0 21 4 25 3 3 5 6 3 8-1 2-4 2-4 2l2 4 6 1s6 9 22 9h18c16 0 22-9 22-9l6-1 3-4s-4 0-5-2z"/><radialGradient id="a" cx="115.4" cy="45.8" r="23.4" gradientTransform="matrix(1 0 0 0 -53 60)" gradientUnits="userSpaceOnUse"><stop offset=".7" stop-color="#6d4c41" stop-opacity="0"/><stop offset="1" stop-color="#6d4c41"/></radialGradient><path fill="url(#a)" d="M48 96V86l29-2 2 3s-6 9-22 9h-9z"/><radialGradient id="b" cx="92.3" cy="49.3" r="6.9" gradientTransform="matrix(-1 0 0 -1 185 73)" gradientUnits="userSpaceOnUse"><stop offset=".7" stop-color="#6d4c41"/><stop offset="1" stop-color="#6d4c41" stop-opacity="0"/></radialGradient><path fill="url(#b)" d="M79 83c-4-6 6-9 6-9-2 2-3 4-2 6s5 2 5 2-5 5-9 1z"/><radialGradient id="c" cx="110.3" cy="68.9" r="30.4" gradientTransform="matrix(0 -1 1 0 19 173)" gradientUnits="userSpaceOnUse"><stop offset=".7" stop-color="#6d4c41" stop-opacity="0"/><stop offset="1" stop-color="#6d4c41"/></radialGradient><path fill="url(#c)" d="M91 47c4 10 0 21-5 25 0 1-3 3-3 5 0 0-10-13-12-21l-2-5 1-4 20-1 1 1z"/><radialGradient id="d" cx="28.6" cy="68.9" r="30.4" gradientTransform="matrix(0 -1 -1 0 84 92)" gradientUnits="userSpaceOnUse"><stop offset=".7" stop-color="#6d4c41" stop-opacity="0"/><stop offset="1" stop-color="#6d4c41"/></radialGradient><path fill="url(#d)" d="M6 47c-5 10 0 21 4 25l4 5s9-13 12-21l1-5-1-4-3-1H6v1z"/><radialGradient id="e" cx="33.7" cy="45.8" r="23.4" gradientTransform="matrix(-1 0 0 0 67 60)" gradientUnits="userSpaceOnUse"><stop offset=".7" stop-color="#6d4c41" stop-opacity="0"/><stop offset="1" stop-color="#6d4c41"/></radialGradient><path fill="url(#e)" d="M48 96V86l-28-2-3 3s6 9 22 9h9z"/><radialGradient id="f" cx="10.6" cy="49.3" r="6.9" gradientTransform="matrix(1 0 0 -1 -15 107)" gradientUnits="userSpaceOnUse"><stop offset=".7" stop-color="#6d4c41"/><stop offset="1" stop-color="#6d4c41" stop-opacity="0"/></radialGradient><path fill="url(#f)" d="M17 83c4-6-5-9-5-9 2 2 2 4 1 6s-4 2-4 2 4 5 8 1z"/><linearGradient id="g" x1="50.1" x2="50.1" y1="32" y2="4" gradientTransform="matrix(1 0 0 -1 0 128)" gradientUnits="userSpaceOnUse"><stop offset="0" stop-color="#f78c1f"/><stop offset=".5" stop-color="#f37f12"/><stop offset="1" stop-color="#ef6c00"/></linearGradient><path fill="url(#g)" d="M96 124v-3c0-17-23-25-47-25-19 0-37 4-45 14v14h92z"/><path fill="#e59600" d="M39 89v10c0 4 4 8 8 8h2c4 0 8-4 8-8V89H39zM76 50H21c-6 0-11 6-11 12s5 11 11 11h55c5 0 10-5 10-11s-5-12-10-12z"/><path fill="#ffca28" d="M48 11c-17 0-33 19-33 45 0 27 16 40 33 40s34-13 34-40c0-26-16-45-34-45z"/><g fill="#404040"><ellipse cx="31.8" cy="58.8" rx="4.9" ry="5.1"/><ellipse cx="64.7" cy="58.8" rx="4.9" ry="5.1"/></g><g fill="#6d4c41"><path d="M39 50c-1-1-3-3-7-3s-6 2-7 3v1l2 1 5-1 5 1 2-1v-1zM72 50c-1-1-3-3-7-3s-7 2-8 3v1l2 1 5-1 6 1 2-1v-1z"/></g><path fill="#795548" d="M57 76c-4 2-14 2-17 0-2-1-4 1-3 2 1 2 6 6 11 6s11-4 12-6c0-1-1-3-3-2z"/><path fill="#e59600" d="M52 68h-8v2s1 2 4 2 5-2 5-2l-1-2z"/><g opacity=".3"><linearGradient id="h" x1="79.3" x2="71.6" y1="14.5" y2="16.2" gradientTransform="matrix(1 0 0 -1 0 128)" gradientUnits="userSpaceOnUse"><stop offset=".3" stop-color="#262626"/><stop offset="1" stop-color="#262626" stop-opacity="0"/></linearGradient><path fill="url(#h)" d="M82 103c-2-2-8-3-8-3l-5 24h9l4-21z"/></g><linearGradient id="i" x1="108.2" x2="100.2" y1="64.1" y2="52.9" gradientTransform="matrix(1 0 0 -1 0 128)" gradientUnits="userSpaceOnUse"><stop offset=".5" stop-color="#ffca28"/><stop offset="1" stop-color="#ffb300"/></linearGradient><path fill="url(#i)" d="m91 74 8 1 4-2 20-5c2 0 3-4-2-5-4-1-14 1-14 1l1-2c-1-3-4-2-6-1l-11 3c-5 1-5 10 0 10z"/><linearGradient id="j" x1="90" x2="90" y1="55.9" y2="10.7" gradientTransform="matrix(1 0 0 -1 0 128)" gradientUnits="userSpaceOnUse"><stop offset="0" stop-color="#f78c1f"/><stop offset=".5" stop-color="#f37f12"/><stop offset="1" stop-color="#ef6c00"/></linearGradient><path fill="url(#j)" d="m103 74-2-2-13-1-2 2-10 51h29l-2-50z"/><path fill="#543930" d="M88 25c-2-4-8-9-12-9-1-5-6-9-11-10-13-4-22 0-27 3-1 0-7 4-11 1-3-1-3-5-3-5s-8 3-5 12c-3 0-7 1-9 5-3 5-2 9-1 11-3 3-6 7-4 13 2 4 9 6 9 6-1 8 1 13 1 15h1l4-20s11-2 22-10l7-4c14-5 17 4 17 4s9-2 12 11l2 18h1c1-2 3-6 3-11 1-1 5-3 7-10 2-9-1-17-3-20z"/><radialGradient id="k" cx="66.3" cy="84.9" r="35.6" gradientTransform="matrix(0 1 1 0 -14 -1)" gradientUnits="userSpaceOnUse"><stop offset=".7" stop-color="#6d4c41" stop-opacity="0"/><stop offset="1" stop-color="#6d4c41"/></radialGradient><path fill="url(#k)" d="M84 56c1-2 5-4 7-11v-2c2-8-1-15-3-18s-7-8-11-9h-2v4l-3 3c12 12 11 22 12 33z"/><radialGradient id="l" cx="31.5" cy="123.8" r="9.3" gradientTransform="matrix(1 0 1 -1 -66 119)" gradientUnits="userSpaceOnUse"><stop offset=".6" stop-color="#6d4c41"/><stop offset="1" stop-color="#6d4c41" stop-opacity="0"/></radialGradient><path fill="url(#l)" d="m41 7-3 2c-1 0-7 4-11 1-3-1-3-5-3-5-1 1-5 12 6 13 5 1 8-4 9-7l2-4z"/><radialGradient id="m" cx="166.2" cy="48.8" r="28.7" gradientTransform="matrix(-1 0 0 1 219 61)" gradientUnits="userSpaceOnUse"><stop offset=".7" stop-color="#6d4c41" stop-opacity="0"/><stop offset="1" stop-color="#6d4c41"/></radialGradient><path fill="url(#m)" d="M63 5c8 2 11 6 12 11 1 2 1 15-25 0-9-6-7-10-6-10 5-2 11-3 19-1z"/><radialGradient id="n" cx="27.8" cy="115.3" r="8.6" gradientTransform="matrix(1 0 0 -1 0 154)" gradientUnits="userSpaceOnUse"><stop offset=".7" stop-color="#6d4c41" stop-opacity="0"/><stop offset="1" stop-color="#6d4c41"/></radialGradient><path fill="url(#n)" d="M24 5c-1 0-8 3-5 12l7 1c-7-7-2-13-2-13z"/><radialGradient id="o" cx="26.6" cy="100.1" r="16.1" gradientTransform="matrix(-1 0 0 1 77 -56)" gradientUnits="userSpaceOnUse"><stop offset=".7" stop-color="#6d4c41" stop-opacity="0"/><stop offset="1" stop-color="#6d4c41"/></radialGradient><path fill="url(#o)" d="m23 18-4-1h-2c-2 0-6 2-7 5-2 4-2 8-2 10l1 1s2-2 8-2l6-13z"/><radialGradient id="p" cx="22.8" cy="84.6" r="16.9" gradientTransform="matrix(1 0 0 -1 -16 158)" gradientUnits="userSpaceOnUse"><stop offset=".6" stop-color="#6d4c41" stop-opacity="0"/><stop offset="1" stop-color="#6d4c41"/></radialGradient><path fill="url(#p)" d="M9 34c-3 2-6 6-4 12 2 5 9 6 9 6l1 1 2-22-8 2v1z"/></svg>