<svg width="800" height="800" viewBox="0 0 1024 1024" class="icon" xmlns="http://www.w3.org/2000/svg"><path d="M896 192H128c-35 0-64 29-64 64v512c0 35 29 64 64 64h577l191 128V832c35 0 64-29 64-64V256c0-35-29-64-64-64z" fill="#3D5AFE"/><path d="M640 512c0-125-51-239-134-320H128c-35 0-64 29-64 64v512c0 35 29 64 64 64h378c83-81 134-195 134-320z" fill="#536DFE"/><path d="M192 512a64 64 0 1 0 128 0 64 64 0 1 0-128 0Z" fill="#FFFF8D"/><path d="M448 512a64 64 0 1 0 128 0 64 64 0 1 0-128 0Z" fill="#FF0"/><path d="M704 512a64 64 0 1 0 128 0 64 64 0 1 0-128 0Z" fill="#FFEA00"/></svg>