<svg xmlns="http://www.w3.org/2000/svg" width="1012" height="912" style="shape-rendering:geometricPrecision;text-rendering:geometricPrecision;image-rendering:optimizeQuality;fill-rule:evenodd;clip-rule:evenodd"><path fill="transparent" d="M0 0h1012v912H0V0Z" style="opacity:1"/><path fill="#356495" d="M559 764a529 529 0 0 1-121 0c-33 1-60 14-81 39-13 16-22 34-29 53-29 10-59 13-89 10-30-4-56-14-79-32-22-15-40-33-55-53l-8-19c36-35 50-77 43-126-5-30-15-58-30-83-10-18-21-35-33-51-30-48-48-99-54-154-6-75 14-141 59-200a341 341 0 0 1 469-75c25 17 46 40 62 67 8 14 13 30 15 47a335 335 0 0 1-4 96c-1 12 3 23 11 33 22 26 50 44 83 54 8 6 11 14 8 25-5 16-14 29-27 40-11 8-23 14-36 18l2 64c-19 23-45 36-75 38h-38c1 26 14 45 37 58 18 10 37 16 58 17l1 2c-3 9-5 18-6 28l1 62c-3 12-10 20-21 25-21 8-42 14-63 17Z" style="opacity:1"/><path fill="#346292" d="M540 165c12-1 24 0 36 2 28 7 41 25 40 55-1 10-4 19-10 28l-7 9c-3 5-5 10-6 16v88c-6 40-29 57-69 48l-12-5a51 51 0 0 1-40 16c-11-2-22-3-33-2-8 3-15 7-21 11-12 5-23 7-35 6-7 4-15 8-22 10l-33 3c-6 4-11 8-15 13a66 66 0 0 1-46 12 99 99 0 0 1-83 45c-25-1-47-9-66-25-18-15-32-33-41-53-12-28-17-57-14-86 4-30 18-53 43-70a92 92 0 0 1 72-6c3-22 14-36 36-42l34-3c6-4 12-8 17-14 13-9 27-12 43-9 17 3 29 13 37 29 3-20 12-35 27-47 20-11 40-12 62-4 10 5 18 13 24 24 5-25 19-40 44-45l38-4Z" style="opacity:1"/><path fill="#325f8d" d="M525 183h37c25 4 36 18 33 44-4 10-9 20-15 29l-4 15c-1 22 0 44 2 66l-3 26c-5 23-20 33-43 29-7-4-15-6-22-7l-1 2-3-1c-7 6-14 11-22 15l-15 3-27-4c-5 0-10 2-15 4-16 10-32 16-50 19l-8 2-7 3c-2-2-3-1-4 1-10 0-20-1-29-4h-12l-20 24c-8 5-17 7-25 7l-9 4-2-1-9 7c-31 38-67 46-110 24-38-26-59-61-63-106-3-34 9-60 35-81 15-10 31-13 49-9l21 10h6l10-30c6-12 16-17 29-17l20 3c6 2 11 0 15-4 5-11 12-18 23-23 20-4 35 3 45 22l13 25 7 6c4-4 6-9 6-14l1 1c0-19 4-36 13-52 15-18 33-22 55-13 5 3 9 7 13 12 6 7 11 15 15 24l30 59c3 4 6 8 11 11l1-3c1-2 1-2 2 0l4-13c0-15-2-29-9-41-7-9-12-18-15-27-3-22 6-36 26-43l20-4Z" style="opacity:1"/><path fill="#d5dee9" d="m581 204-1 15-3 3-18 2-7 4 2 133c0 6-4 9-9 11h-14c-4-2-6-4-7-8a3449 3449 0 0 1-7-135l-24-2-3-2c-3-9-2-18 2-26l5-4 77-3c5 2 7 6 7 12Z" style="opacity:1"/><path fill="#315c89" d="M581 204c6 9 7 18 2 29l-10 18c-4 11-6 22-5 34v68c-1 12-8 22-18 28-7 2-14 2-20-2l-14-9c-2-1-3-3-2-4-3 0-4-1-5-3l-21 25c-6 4-13 6-20 7-9-2-17-3-26-3l-11 1-25 13-49 14c-17-1-32-8-44-20h-5l-8 28c-6 12-16 18-29 18l-12 5c-1-1-2-1-3 1l-1-1-14 13a70 70 0 0 1-93 21c-35-23-54-55-60-95-3-24 2-46 15-65l4-4 1 1c-6 7-9 16-11 25l-1-3c-12 50 1 93 40 128a68 68 0 0 0 89 5l23-25 7-6 26-6c13-6 19-16 19-31l-2-19c0-4 1-6 3-9 2-1 4-1 6 1l22 25c6 4 13 7 21 9h9l11-3 1 1 13-5 1 1 24-9c7-5 15-9 24-12 11-1 22 0 33 2 6 0 12-2 18-5 13-11 16-25 10-40l-51-101c-5-9-11-17-18-23v2c-2-2-3-5-3-7l9 5c4 5 8 9 11 15l49 96 11 14 4-4 1 1c1-9 2-17 5-25l-2-34-4-22c-4-10-9-19-15-27-2-4-2-8-1-11l3 2 24 2 1 2 6 133c1 4 3 6 7 8h14c5-2 9-5 9-11l-2-133 7-4 18-2 3-3 1-15Z" style="opacity:1"/><path fill="#d5dee9" d="M422 217c0 2 1 5 3 7a1333 1333 0 0 1 66 138l-1 10-23 8c-6 1-11-1-13-6l-5-10c-1-3-3-4-6-4l-29 8c-2 2-4 3-5 6l-2 13-4 3-24 6c-9-1-12-6-10-15l3-65a3592 3592 0 0 0 8-94c1-4 3-6 6-8 7-3 14-4 22-5h7l7 8Z" style="opacity:1"/><path fill="#315a86" d="M97 347c-3 28 2 54 15 80 7 10 15 20 24 29l26 16c14 5 29 4 44-2 15-8 27-20 35-35 3-7 2-13-2-19-2-1-4-2-5-1l5-9c-2-2-2-4 0-6l-2-5 1-1-29-86v-19c0-2 1-3 2-3l12 32 39 113c3 3 7 4 13 3l11-4c6-2 8-7 6-13l-11-32c-1-10 3-18 10-24 11-4 21-2 28 9l1-1 13 35c3 4 6 6 12 4l16-7 2-5-12-36a7608 7608 0 0 0-41-115c6 3 10 8 14 14l19 41 10 11c1-3 3-3 4 0l7-15 8-56 6-12 1 11-7 77-3 65c-2 9 1 14 10 15l24-6 4-3 2-13c1-3 3-4 5-6l29-8c3 0 5 1 6 4l5 10c2 5 7 7 13 6l23-8v-10a1333 1333 0 0 0-65-138v-2c7 6 13 14 18 23l51 101c6 15 3 29-10 40-6 3-12 5-18 5-11-2-22-3-33-2-9 3-17 7-24 12l-24 9-1-1-13 5-1-1-11 3h-9c-8-2-15-5-21-9l-22-25c-2-2-4-2-6-1-2 3-3 5-3 9l2 19c0 15-6 25-19 31l-26 6-7 6-23 25a68 68 0 0 1-53 13c-14-3-26-9-36-18-39-35-52-78-40-128l1 3Z" style="opacity:1"/><path fill="#d5dee9" d="M310 247a7608 7608 0 0 1 53 149l-2 5-16 7c-6 2-9 0-12-4a719 719 0 0 0-25-68l-3-1c-12 3-23 8-34 14v8l10 28 11 32c2 6 0 11-6 13l-11 4c-6 1-10 0-13-3a5652 5652 0 0 1-54-160c0-3 2-5 4-7 5-2 11-5 18-6l5 2 6 11 15 43 5 3 32-13 2-4-16-45c-4-8-2-14 6-18l12-4c2-1 4-1 6 1l7 13Z" style="opacity:1"/><path fill="#315b87" d="m279 255 16 45-2 4-32 13-5-3a3353 3353 0 0 1-14-44l23 13 4-3 5-17c1-4 2-6 5-8Z" style="opacity:1"/><path fill="#2c5178" d="m411 282 2 1c7 11 13 22 18 35l-1 3-16 5-4-2c-1-15-1-29 1-42Z" style="opacity:1"/><path fill="#d5dee8" d="M177 319c-2 6-6 11-10 16-5 2-10 2-14-1-12 0-21 6-25 18l-1 11c3 31 18 56 44 73 7 2 15 3 24 2 7-3 13-8 16-15 5-8 13-11 23-8 1-1 3 0 5 1 4 6 5 12 2 19-8 15-20 27-35 35-15 6-30 7-44 2l-26-16c-9-9-17-19-24-29-13-26-18-52-15-80 2-9 5-18 11-25 11-17 27-24 48-21l15 4c4 3 6 8 6 14Z" style="opacity:1"/><path fill="#305a86" d="m177 319 2 1c2 9 1 17-5 25-8 6-15 13-22 21-4 7-6 16-4 25 5 15 14 26 27 35 6 2 12 3 19 2l17-5c-3 7-9 12-16 15-9 1-17 0-24-2a97 97 0 0 1-44-73l1-11c4-12 13-18 25-18 4 3 9 3 14 1 4-5 8-10 10-16Z" style="opacity:1"/><path fill="#346292" d="M198 331c5 3 10 9 13 18l15 41c0 10-4 18-13 23-27 14-46 6-56-22-2-9 0-17 5-23l22-19c3-7 6-13 10-17l3 1 1-2Z" style="opacity:1"/><path fill="#2e567f" d="m320 369-1 1c-7-11-17-13-28-9-7 6-11 14-10 24l-10-28v-8c11-6 22-11 34-14l3 1 12 33Z" style="opacity:1"/><path fill="#ea7d4e" d="M744 457h18l4 3 17 45c3 1 6 0 7-3 7-11 13-23 18-34 1-3 3-4 5-6 8-2 16 0 23 6v29l-9 102c-1 2-3 3-6 3l-15-2c-3-4-5-9-4-14l4-55c-2-1-4 0-5 2l-14 24-6 6-6-9-10-25c-1-2-2-2-3 0l-7 63c-1 3-3 4-7 5l-12-2c-6-2-8-6-8-11 4-27 6-55 6-82l5-39c1-3 2-5 5-6Z" style="opacity:1"/><defs>
  <mask id="maskD">
    <rect width="100%" height="100%" fill="white"/>
    <path d="M888 500c4-1 8 0 12 1l8 8c6 14 7 28 4 44-3 14-11 21-25 23l-5-2c-2-4-3-8-2-12l4-57 4-5Z" fill="black"/>
  </mask>
</defs>
<path 
  fill="#ea7c4e" 
  d="m864 466 38 2c20 4 34 15 40 36 4 22 2 45-6 67s-24 34-47 35l-30-3c-4 0-7-2-9-4-1-43 2-85 8-127 1-3 3-5 6-6Z"
  mask="url(#maskD)"
/></svg>